Calcio.2011.Highlights.06.720p.HDTV.x264.AC3-MohD.mkv
Format                           : Matroska
File size                        : 1.19 GiB
Duration                         : 42mn 22s
Overall bit rate                 : 4 005 Kbps
Encoded date                     : UTC 2010-10-09 10:04:34
Writing application              : mkvmerge v3.3.0 ('Language') built on Mar 24 2010 14:59:24
Writing library                  : libebml v0.8.0 + libmatroska v0.9.0

Video
ID                               : 1
Format                           : AVC
Format/Info                      : Advanced Video Codec
Format profile                   : Main@L3.1
Format settings, CABAC           : Yes
Format settings, ReFrames        : 1 frame
Muxing mode                      : Container profile=Unknown@3.1
Codec ID                         : V_MPEG4/ISO/AVC
Duration                         : 42mn 22s
Bit rate                         : 3 734 Kbps
Width                            : 1 280 pixels
Height                           : 720 pixels
Display aspect ratio             : 16:9
Frame rate                       : 25.000 fps
Resolution                       : 24 bits
Colorimetry                      : 4:2:0
Scan type                        : Progressive
Bits/(Pixel*Frame)               : 0.162
Stream size                      : 1.11 GiB (93%)

Audio
ID                               : 2
Format                           : AC-3
Format/Info                      : Audio Coding 3
Codec ID                         : A_AC3
Duration                         : 42mn 22s
Bit rate mode                    : Constant
Bit rate                         : 192 Kbps
Channel(s)                       : 2 channels
Channel positions                : L R
Sampling rate                    : 48.0 KHz
Video delay                      : 24ms
Stream size                      : 58.2 MiB (5%)

